<?xml version="1.0" encoding="UTF-8" standalone="no"?>
<!DOCTYPE svg PUBLIC "-//W3C//DTD SVG 1.1//EN" "http://www.w3.org/Graphics/SVG/1.1/DTD/svg11.dtd">
<svg xmlns="http://www.w3.org/2000/svg" version="1.1" viewBox="0.00 0.00 624.00 560.00">
<path fill="#fec50c" d="
  M 322.27 50.78
  C 319.65 58.68 307.84 59.00 303.18 53.12
  Q 300.34 49.53 301.14 44.72
  Q 304.13 26.64 312.11 0.97
  Q 312.22 0.61 312.33 0.97
  Q 318.38 20.99 322.60 41.40
  C 323.33 44.89 323.32 47.63 322.27 50.78
  Z"
/>
<path fill="#fec50c" d="
  M 271.64 4.93
  C 277.28 15.98 284.56 30.28 289.52 42.90
  C 292.81 51.30 291.47 58.90 280.99 60.20
  C 272.08 61.31 269.06 54.23 269.11 46.75
  Q 269.22 25.83 271.20 5.01
  Q 271.28 4.22 271.64 4.93
  Z"
/>
<path fill="#fec50c" d="
  M 335.97 39.35
  Q 343.77 21.90 352.81 4.99
  Q 353.01 4.60 353.06 5.04
  Q 355.52 29.05 355.26 48.99
  C 355.05 65.43 331.33 62.83 333.16 48.73
  Q 333.72 44.39 335.97 39.35
  Z"
/>
<path fill="#fec50c" d="
  M 241.61 66.35
  C 238.97 63.47 238.31 59.80 237.59 55.96
  Q 233.99 36.57 232.00 16.83
  Q 231.95 16.31 232.27 16.71
  Q 245.19 32.55 257.70 50.81
  C 260.71 55.21 262.14 61.01 258.34 65.43
  Q 254.67 69.70 249.22 69.68
  Q 244.65 69.67 241.61 66.35
  Z"
/>
<path fill="#fec50c" d="
  M 387.62 51.49
  C 386.03 61.39 382.89 75.45 368.77 67.71
  C 361.63 63.80 362.98 56.39 366.88 50.61
  Q 378.70 33.10 392.05 16.73
  Q 392.46 16.23 392.39 16.87
  Q 390.71 32.24 387.62 51.49
  Z"
/>
<path fill="#fec50c" d="
  M 210.41 76.82
  Q 201.72 55.68 195.92 36.33
  Q 195.75 35.78 196.20 36.14
  Q 211.76 48.86 226.05 62.97
  C 232.84 69.67 236.33 77.57 225.90 83.60
  C 219.10 87.53 213.07 83.28 210.41 76.82
  Z"
/>
<path fill="#fec50c" d="
  M 418.09 66.57
  C 416.01 72.17 413.63 80.05 408.98 83.28
  C 400.23 89.36 387.65 78.41 393.27 68.96
  Q 395.69 64.90 400.85 60.09
  Q 414.14 47.69 428.17 36.12
  Q 428.67 35.71 428.48 36.33
  Q 424.14 50.23 418.09 66.57
  Z"
/>
<path fill="#fec50c" d="
  M 164.01 62.00
  A 0.12 0.12 0.0 0 1 164.17 61.84
  Q 177.57 69.23 190.78 77.16
  Q 198.59 81.84 203.56 85.91
  C 211.89 92.72 205.99 105.18 196.41 105.52
  C 190.14 105.74 185.40 98.44 182.23 93.29
  Q 172.83 78.03 164.01 62.00
  Z"
/>
<path fill="#fec50c" d="
  M 460.18 62.21
  Q 450.38 80.13 440.16 96.32
  Q 437.15 101.08 433.69 103.69
  C 424.57 110.56 411.32 96.84 418.91 87.90
  Q 421.95 84.33 427.31 80.99
  Q 443.51 70.93 459.97 62.00
  Q 460.44 61.74 460.18 62.21
  Z"
/>
<circle fill="#fec50c" cx="311.99" cy="210.17" r="134.52"/>
<path fill="#fec50c" d="
  M 178.81 108.20
  C 185.57 111.04 189.38 116.65 186.09 123.24
  C 179.55 136.33 169.08 128.63 162.23 121.26
  Q 149.86 107.94 138.22 93.97
  Q 137.91 93.59 138.38 93.73
  Q 158.98 99.89 178.81 108.20
  Z"
/>
<path fill="#fec50c" d="
  M 451.39 105.56
  Q 468.47 99.10 485.91 93.71
  Q 486.25 93.61 486.03 93.88
  Q 469.03 114.88 455.65 127.41
  Q 452.66 130.20 448.26 130.26
  C 438.27 130.40 432.55 115.94 442.07 110.05
  Q 446.07 107.56 451.39 105.56
  Z"
/>
<path fill="#fec50c" d="
  M 155.93 157.09
  Q 151.65 154.84 146.73 151.31
  Q 132.59 141.15 118.98 130.20
  Q 118.67 129.95 119.07 129.99
  Q 146.28 132.36 164.17 136.70
  Q 168.08 137.65 170.34 141.16
  C 176.08 150.08 166.51 162.64 155.93 157.09
  Z"
/>
<path fill="#fec50c" d="
  M 467.78 157.43
  C 454.10 163.38 445.46 142.24 459.57 137.06
  Q 464.15 135.38 473.73 133.90
  Q 489.42 131.47 505.21 129.85
  Q 505.77 129.80 505.34 130.15
  Q 494.08 139.34 482.48 148.01
  Q 472.77 155.27 467.78 157.43
  Z"
/>
<path fill="#fec50c" d="
  M 142.35 186.52
  Q 124.49 178.63 107.17 169.37
  Q 106.74 169.14 107.23 169.09
  Q 126.18 167.21 145.24 166.64
  Q 151.63 166.44 156.26 168.01
  C 167.02 171.64 163.21 190.51 150.98 189.01
  Q 146.83 188.50 142.35 186.52
  Z"
/>
<path fill="#fec50c" d="
  M 517.24 169.39
  C 504.28 176.20 490.43 183.56 476.62 188.33
  C 470.96 190.29 465.70 188.66 463.00 183.17
  Q 460.74 178.59 462.18 173.95
  C 464.78 165.63 477.51 166.50 485.51 166.94
  C 496.06 167.51 506.63 168.04 517.17 169.03
  Q 517.82 169.09 517.24 169.39
  Z"
/>
<path fill="#fec50c" d="
  M 151.84 199.48
  C 155.84 200.77 158.43 203.16 159.11 207.39
  C 160.79 217.86 153.49 222.42 144.01 220.47
  Q 123.33 216.20 103.09 210.19
  Q 102.58 210.04 103.09 209.88
  Q 125.08 203.11 147.71 198.82
  Q 149.03 198.57 151.84 199.48
  Z"
/>
<path fill="#fec50c" d="
  M 479.82 220.60
  C 470.93 222.38 464.09 217.90 465.16 208.21
  C 466.50 196.11 479.49 198.96 487.53 200.85
  Q 504.48 204.86 521.19 209.81
  Q 521.74 209.98 521.19 210.14
  Q 500.73 216.41 479.82 220.60
  Z"
/>
<path fill="#fec50c" d="
  M 624.00 309.27
  L 624.00 310.06
  Q 618.64 319.00 611.79 327.05
  Q 591.70 350.64 567.08 369.49
  Q 566.62 369.84 567.12 370.11
  C 573.14 373.40 585.30 364.74 592.13 360.65
  Q 595.46 358.66 599.67 358.51
  Q 600.18 358.49 600.22 359.00
  C 601.19 370.19 588.14 380.18 579.92 385.43
  Q 565.48 394.64 551.14 404.00
  Q 550.69 404.29 551.08 404.66
  Q 552.33 405.86 553.51 405.81
  Q 561.61 405.44 569.37 405.52
  A 1.51 1.50 21.5 0 1 570.47 408.04
  Q 566.42 412.45 560.44 414.46
  Q 546.61 419.12 532.46 422.81
  Q 531.25 423.12 530.04 424.18
  Q 529.20 424.90 530.31 424.97
  L 550.50 426.26
  Q 553.71 426.47 551.69 428.78
  Q 551.22 429.32 548.78 430.35
  C 538.17 434.81 526.29 436.43 515.12 439.09
  Q 514.27 439.29 515.07 439.67
  Q 516.87 440.50 518.75 440.73
  Q 525.64 441.53 532.90 442.58
  Q 537.04 443.18 533.61 445.56
  Q 532.93 446.04 529.99 446.30
  Q 514.97 447.62 502.74 450.69
  Q 499.64 451.47 496.52 453.89
  Q 496.08 454.23 496.57 454.50
  C 502.31 457.77 507.71 459.02 512.38 461.29
  Q 513.04 461.61 512.41 462.00
  Q 505.82 466.11 499.26 470.06
  Q 473.95 485.28 444.25 485.65
  Q 437.90 485.72 431.57 485.52
  Q 431.42 485.52 431.42 485.38
  L 431.42 485.37
  Q 431.41 485.23 431.55 485.21
  C 453.22 482.22 471.00 473.06 487.99 459.27
  Q 488.40 458.94 488.28 458.43
  L 486.15 449.75
  A 0.48 0.47 -2.4 0 1 486.69 449.17
  Q 495.25 450.53 501.16 444.60
  Q 501.55 444.21 501.16 443.82
  L 496.80 439.45
  Q 496.44 439.09 496.88 438.83
  Q 499.96 437.02 500.97 436.77
  Q 507.21 435.17 513.47 431.18
  A 1.61 1.61 0.0 0 0 513.36 428.40
  Q 512.09 427.73 511.70 426.49
  A 1.17 1.12 49.8 0 1 511.75 425.70
  Q 512.64 423.76 513.57 423.27
  Q 522.13 418.79 530.79 414.48
  Q 531.56 414.10 530.75 413.80
  L 524.99 411.62
  Q 524.44 411.42 524.90 411.05
  C 534.22 403.72 544.49 399.24 554.29 391.99
  Q 554.81 391.61 554.19 391.44
  L 543.28 388.46
  Q 542.89 388.36 543.19 388.09
  Q 549.90 382.14 554.59 377.36
  Q 559.00 372.88 558.09 366.55
  Q 558.01 366.01 557.47 366.03
  Q 552.62 366.25 547.28 368.53
  Q 545.16 369.44 542.00 369.44
  Q 541.38 369.45 541.81 368.99
  C 548.82 361.70 553.90 353.72 554.85 343.51
  Q 554.90 342.95 554.35 342.86
  C 531.78 339.16 512.70 358.71 498.75 374.49
  Q 490.24 384.12 486.41 394.49
  Q 486.24 394.96 485.84 395.25
  Q 482.10 398.01 480.30 398.91
  Q 459.85 409.03 439.40 419.16
  C 425.74 425.93 413.20 435.13 404.03 447.39
  A 2.23 2.20 10.6 0 1 402.86 448.18
  C 385.60 452.89 365.75 454.18 349.88 456.61
  Q 337.18 458.56 323.78 463.02
  C 313.27 466.51 305.87 477.40 298.93 481.96
  Q 286.56 490.08 274.19 498.20
  Q 268.66 501.84 252.00 508.19
  A 0.29 0.28 42.4 0 0 252.03 508.73
  L 253.26 509.08
  Q 253.74 509.21 253.88 509.69
  Q 254.45 511.56 253.19 512.72
  A 2.19 2.18 -47.5 0 1 250.37 512.85
  Q 248.90 511.71 249.37 510.02
  Q 249.59 509.27 248.94 509.71
  L 242.61 513.97
  A 0.76 0.74 38.8 0 1 241.88 514.04
  L 236.98 511.94
  A 0.77 0.77 0.0 0 1 236.52 511.18
  C 237.00 503.75 246.38 500.10 252.32 497.97
  C 269.64 491.76 281.67 487.75 293.72 475.76
  Q 300.77 468.76 307.19 461.17
  C 311.01 456.66 320.96 444.62 327.51 444.17
  Q 381.50 440.47 426.45 417.20
  Q 458.34 400.69 486.64 371.90
  Q 536.26 321.45 549.90 251.78
  Q 550.00 251.26 550.46 250.99
  C 562.43 244.01 561.45 262.54 560.98 268.32
  Q 559.78 283.22 557.01 295.66
  Q 555.79 301.19 558.48 296.21
  C 563.44 287.01 566.53 278.61 569.39 267.57
  Q 574.08 249.51 579.15 231.75
  A 1.69 1.66 -1.5 0 1 580.25 230.61
  C 584.70 229.16 589.21 230.67 590.20 235.56
  C 592.54 247.15 590.06 259.86 586.36 271.37
  Q 578.77 294.98 566.48 316.63
  Q 566.05 317.39 566.81 316.95
  Q 568.21 316.14 569.30 315.02
  C 578.78 305.34 585.67 295.41 594.00 282.42
  C 596.49 278.53 599.33 275.19 602.22 271.69
  Q 608.14 264.52 615.81 269.45
  C 620.27 272.32 614.48 282.67 612.58 285.97
  Q 593.73 318.56 567.76 345.53
  A 0.16 0.16 0.0 0 0 567.95 345.78
  C 584.00 337.02 596.63 323.42 609.21 310.42
  Q 613.19 306.31 615.42 305.35
  Q 620.73 303.07 624.00 309.27
  Z"
/>
<path fill="#fec50c" d="
  M 0.00 310.91
  L 0.00 308.48
  Q 2.81 304.33 7.39 305.25
  Q 9.62 305.70 12.04 308.16
  C 20.08 316.32 28.00 324.85 36.64 332.37
  C 43.38 338.23 48.50 342.61 55.68 345.65
  Q 56.88 346.16 55.89 345.32
  Q 52.98 342.85 49.99 339.51
  Q 32.96 320.48 19.10 299.08
  C 13.43 290.32 8.91 283.38 6.30 275.00
  C 5.35 271.94 7.32 269.60 10.18 268.59
  Q 17.11 266.15 21.99 272.25
  C 31.89 284.63 40.31 299.57 50.04 310.71
  Q 53.37 314.53 57.18 317.50
  A 0.23 0.22 -85.9 0 0 57.51 317.21
  Q 47.13 298.67 39.80 278.71
  C 35.00 265.65 31.39 251.99 33.08 238.32
  C 33.86 232.04 37.48 228.63 43.92 231.04
  A 0.98 0.98 0.0 0 1 44.52 231.68
  Q 49.99 250.70 54.86 269.85
  C 57.35 279.67 61.21 290.47 66.79 298.32
  Q 67.26 298.97 67.11 298.18
  C 64.97 286.96 58.85 257.50 65.43 250.86
  C 67.59 248.68 71.38 249.89 73.47 251.48
  Q 73.87 251.78 73.96 252.27
  Q 87.41 320.91 134.90 370.11
  Q 193.51 430.84 278.74 442.70
  Q 287.53 443.92 306.82 444.93
  Q 307.47 444.96 307.19 445.55
  L 298.48 463.58
  A 1.00 0.99 -55.6 0 1 296.91 463.88
  Q 291.34 458.72 283.69 456.11
  C 266.21 450.14 244.30 452.79 226.47 449.28
  Q 214.22 446.87 204.18 437.31
  Q 189.73 423.55 179.67 414.57
  C 172.43 408.11 163.98 408.28 155.05 404.21
  C 127.24 391.53 115.39 364.17 95.20 343.66
  Q 86.37 334.70 76.19 327.40
  A 1.33 1.32 -52.5 0 0 74.39 327.64
  Q 72.41 330.11 71.84 333.27
  A 0.45 0.45 0.0 0 1 71.19 333.58
  C 66.75 331.26 62.95 329.60 58.54 332.07
  Q 58.09 332.32 58.42 332.71
  C 64.01 339.62 70.76 350.45 71.51 359.47
  Q 71.56 360.02 71.00 360.02
  L 58.05 360.02
  A 0.38 0.38 0.0 0 0 57.74 360.61
  Q 66.05 372.64 77.65 381.59
  Q 78.12 381.96 77.53 382.02
  L 65.78 383.18
  Q 64.94 383.26 65.58 383.81
  Q 72.71 389.99 80.81 394.59
  C 84.39 396.62 88.26 397.57 92.24 398.48
  A 1.20 1.19 -73.5 0 1 93.09 400.06
  C 91.53 404.29 90.23 408.34 95.98 409.91
  Q 98.67 410.65 100.95 412.26
  A 0.52 0.52 0.0 0 1 100.95 413.11
  C 97.75 415.37 95.54 417.20 96.93 421.54
  A 1.24 1.23 0.5 0 0 97.71 422.33
  L 111.15 426.75
  Q 113.48 427.52 111.55 429.04
  L 105.70 433.63
  Q 104.06 434.93 105.83 436.04
  Q 117.10 443.10 130.44 444.29
  Q 131.45 444.38 130.58 444.90
  L 119.58 451.60
  Q 117.42 452.92 119.68 454.05
  Q 158.20 473.37 199.94 484.12
  Q 200.02 484.15 199.94 484.14
  Q 177.80 482.51 156.50 475.43
  C 138.53 469.46 117.53 459.27 99.27 452.40
  Q 96.69 451.43 99.32 450.62
  L 113.01 446.39
  Q 114.11 446.05 112.97 445.85
  C 104.15 444.31 95.87 442.69 87.24 440.23
  Q 83.52 439.17 81.98 437.72
  Q 80.15 436.01 82.55 435.29
  L 97.53 430.75
  Q 98.80 430.37 97.50 430.10
  Q 86.50 427.87 75.50 426.19
  C 72.40 425.72 69.13 424.75 67.10 422.86
  Q 65.63 421.48 67.63 421.23
  Q 77.29 420.00 87.08 417.46
  Q 88.10 417.19 89.22 415.82
  Q 89.51 415.45 89.08 415.27
  C 75.43 409.75 58.72 414.21 48.85 401.48
  A 0.73 0.73 0.0 0 1 49.47 400.31
  Q 60.75 401.05 71.24 401.70
  Q 75.85 401.99 80.01 400.84
  A 0.42 0.42 0.0 0 0 80.06 400.04
  C 66.30 394.39 23.61 376.76 23.11 359.26
  Q 23.10 358.81 23.55 358.82
  Q 27.97 358.85 30.51 360.42
  Q 35.65 363.58 44.99 368.73
  Q 50.71 371.88 56.66 370.52
  Q 57.43 370.35 56.81 369.86
  C 35.57 353.55 14.18 333.48 0.00 310.91
  Z"
/>
<path fill="#fec50c" d="
  M 142.42 233.66
  C 146.97 231.62 151.95 229.82 156.56 231.80
  C 164.03 235.01 164.57 247.81 157.53 251.43
  Q 154.25 253.11 146.16 253.06
  Q 126.66 252.92 107.22 250.91
  Q 106.53 250.84 107.14 250.52
  Q 120.81 243.34 142.42 233.66
  Z"
/>
<path fill="#fec50c" d="
  M 488.86 236.57
  Q 503.21 243.23 517.27 250.62
  Q 517.85 250.92 517.20 250.98
  Q 506.80 251.93 496.40 252.47
  C 485.25 253.05 478.57 253.73 470.77 252.75
  C 456.08 250.90 460.54 226.42 476.25 231.52
  Q 482.02 233.40 488.86 236.57
  Z"
/>
<path fill="#fec50c" d="
  M 161.76 261.53
  C 172.55 262.28 176.18 278.15 165.73 282.50
  Q 161.37 284.32 154.52 285.43
  Q 136.89 288.30 119.11 290.15
  Q 118.68 290.19 119.01 289.92
  Q 138.79 273.51 154.96 263.22
  Q 158.04 261.27 161.76 261.53
  Z"
/>
<path fill="#fec50c" d="
  M 459.44 282.83
  C 445.83 278.40 453.74 256.37 467.78 262.55
  Q 472.72 264.73 482.18 271.78
  Q 493.95 280.57 505.36 289.85
  Q 505.78 290.18 505.24 290.13
  Q 490.52 288.65 475.98 286.53
  Q 466.57 285.16 459.44 282.83
  Z"
/>
<path fill="#fec50c" d="
  M 138.67 325.75
  Q 150.45 310.74 163.98 297.27
  C 167.60 293.68 171.29 289.50 176.80 289.69
  C 181.94 289.86 186.56 295.45 187.25 300.02
  C 188.57 308.70 178.13 312.55 170.77 315.25
  Q 154.98 321.05 138.96 326.16
  Q 138.14 326.42 138.67 325.75
  Z"
/>
<path fill="#fec50c" d="
  M 451.42 314.38
  C 444.32 311.66 434.25 307.70 437.83 297.64
  C 440.32 290.63 447.79 287.22 454.42 291.86
  Q 458.07 294.41 463.62 300.40
  Q 475.21 312.91 486.12 326.04
  Q 486.47 326.46 485.94 326.30
  Q 468.47 320.91 451.42 314.38
  Z"
/>
<path fill="#fec50c" d="
  M 186.06 321.08
  C 197.14 304.25 217.84 324.60 201.58 335.56
  Q 183.59 347.68 164.46 357.96
  Q 163.94 358.24 164.22 357.72
  Q 174.32 338.90 186.06 321.08
  Z"
/>
<path fill="#fec50c" d="
  M 452.85 354.22
  Q 438.57 346.14 424.80 337.22
  C 419.48 333.77 414.18 328.06 417.81 321.32
  C 421.18 315.06 429.05 311.82 434.82 317.18
  Q 438.30 320.42 442.16 326.68
  Q 451.56 341.97 460.14 357.74
  Q 460.39 358.20 459.93 357.97
  Q 456.32 356.18 452.85 354.22
  Z"
/>
<path fill="#fec50c" d="
  M 208.91 346.67
  C 211.66 339.59 216.67 331.50 225.68 336.09
  C 233.17 339.91 234.87 348.06 228.64 354.44
  Q 214.62 368.81 196.13 383.86
  Q 195.70 384.21 195.87 383.68
  Q 200.95 367.16 208.91 346.67
  Z"
/>
<path fill="#fec50c" d="
  M 416.07 347.59
  Q 422.86 365.40 428.39 383.70
  Q 428.56 384.24 428.12 383.88
  Q 414.93 372.93 402.48 361.28
  C 398.67 357.72 393.50 353.14 392.33 348.23
  C 389.92 338.15 404.00 329.93 411.08 338.49
  Q 413.89 341.89 416.07 347.59
  Z"
/>
<path fill="#fec50c" d="
  M 363.82 362.13
  C 362.13 351.91 377.34 345.96 383.16 353.73
  Q 385.25 356.53 386.75 364.26
  Q 390.46 383.46 392.26 403.00
  Q 392.32 403.60 391.95 403.13
  Q 380.33 388.78 369.67 373.79
  C 367.19 370.30 364.49 366.14 363.82 362.13
  Z"
/>
<path fill="#fec50c" d="
  M 256.07 352.50
  C 265.14 358.48 258.81 367.89 254.47 374.02
  Q 243.90 388.93 232.40 403.13
  Q 232.11 403.48 232.15 403.03
  Q 234.46 376.91 238.77 358.43
  Q 239.86 353.74 244.05 351.42
  C 247.89 349.29 252.55 350.18 256.07 352.50
  Z"
/>
<path fill="#fec50c" d="
  M 352.74 415.02
  C 346.23 402.61 339.86 389.86 334.58 376.89
  C 331.94 370.40 332.55 362.30 340.51 360.27
  Q 350.16 357.82 353.61 364.69
  Q 355.29 368.05 355.22 376.34
  Q 355.06 395.68 353.09 414.96
  Q 353.02 415.57 352.74 415.02
  Z"
/>
<path fill="#fec50c" d="
  M 285.26 387.65
  Q 278.73 401.46 271.56 415.02
  Q 271.30 415.51 271.25 414.96
  Q 269.32 395.11 268.83 375.26
  Q 268.68 369.13 270.70 364.74
  C 273.59 358.47 282.87 358.59 287.55 362.03
  Q 292.39 365.57 291.06 372.53
  Q 290.14 377.32 285.26 387.65
  Z"
/>
<path fill="#fec50c" d="
  M 302.04 369.48
  Q 303.70 364.35 309.00 363.35
  C 323.14 360.68 324.24 371.66 322.01 381.75
  Q 317.84 400.55 312.36 419.00
  Q 312.19 419.56 312.02 419.00
  Q 305.45 397.54 301.15 375.53
  Q 300.74 373.47 302.04 369.48
  Z"
/>
<path fill="#fec50c" d="
  M 278.46 509.70
  L 283.02 510.65
  Q 283.64 510.78 283.22 511.26
  L 276.35 519.12
  A 0.54 0.53 -58.4 0 0 276.55 519.97
  Q 284.81 523.25 293.08 519.95
  Q 293.55 519.76 294.02 519.94
  C 305.54 524.45 318.81 523.61 331.00 523.43
  Q 334.32 523.38 337.32 524.66
  Q 337.94 524.92 337.31 525.15
  Q 333.91 526.38 331.50 526.23
  C 304.06 524.47 275.47 523.89 248.25 527.28
  Q 242.41 528.01 236.31 530.54
  Q 235.68 530.81 235.89 530.15
  L 237.04 526.56
  Q 237.21 526.03 236.67 526.15
  C 233.49 526.82 228.63 528.65 227.34 532.04
  Q 227.19 532.42 227.02 532.05
  C 222.73 523.13 228.61 516.42 236.55 513.02
  A 0.82 0.80 50.0 0 1 237.32 513.10
  Q 241.66 516.11 246.78 514.73
  Q 247.34 514.58 247.82 514.92
  Q 250.44 516.80 252.00 516.59
  Q 260.02 515.51 258.87 507.61
  Q 258.80 507.14 259.27 507.06
  Q 270.82 505.06 282.11 502.06
  Q 283.61 501.67 287.36 501.63
  Q 287.92 501.62 287.47 501.96
  L 278.29 508.97
  Q 277.58 509.51 278.46 509.70
  Z"
/>
<path fill="#fec50c" d="
  M 320.66 560.00
  L 319.00 560.00
  C 314.84 558.21 320.29 548.60 317.03 544.59
  Q 316.66 544.14 316.34 544.62
  C 312.85 549.77 306.14 558.37 299.88 559.79
  A 2.12 2.12 0.0 0 1 297.54 558.72
  C 295.93 555.70 296.90 549.51 296.88 545.98
  Q 296.88 545.31 296.33 545.68
  C 288.93 550.68 275.94 560.58 268.63 557.31
  Q 268.19 557.11 268.34 556.66
  C 271.98 545.34 280.65 539.19 292.12 536.66
  C 316.35 531.32 341.49 535.00 365.25 531.98
  C 374.66 530.78 384.18 527.44 390.78 520.08
  Q 391.16 519.65 390.90 519.13
  L 388.83 514.97
  Q 388.57 514.45 389.15 514.37
  C 393.74 513.73 400.40 510.52 399.18 504.74
  Q 399.07 504.26 399.56 504.17
  C 415.15 501.32 431.83 503.29 448.61 505.13
  Q 464.82 506.90 481.11 507.97
  Q 481.55 508.00 481.55 508.44
  Q 481.50 523.82 466.72 525.05
  Q 456.78 525.87 449.15 517.97
  Q 448.61 517.41 448.60 518.19
  C 448.55 522.97 448.26 532.28 444.38 535.58
  C 439.33 539.86 431.95 535.15 427.60 531.10
  Q 426.55 530.12 424.06 530.40
  Q 423.58 530.46 423.39 530.91
  C 421.35 535.92 416.37 548.98 410.24 545.74
  C 407.47 544.27 406.52 540.95 406.20 538.00
  Q 406.13 537.38 405.61 537.72
  Q 403.76 538.91 403.09 540.10
  C 399.96 545.69 394.84 553.18 387.75 551.61
  Q 387.28 551.50 386.96 551.14
  L 380.92 544.39
  Q 380.50 543.92 380.17 544.46
  C 377.58 548.72 369.78 559.49 364.42 554.64
  C 362.24 552.67 361.26 547.97 360.12 544.92
  A 0.70 0.70 0.0 0 0 358.87 544.80
  Q 355.96 549.61 352.87 554.55
  Q 351.57 556.64 349.70 557.43
  C 347.08 558.55 341.82 559.80 339.76 557.10
  A 1.57 1.53 -61.9 0 1 339.45 556.03
  L 340.47 544.99
  Q 340.52 544.44 339.98 544.54
  C 336.89 545.10 332.07 551.66 329.90 554.12
  Q 325.89 558.66 320.66 560.00
  Z"
/>
</svg>
